<svg xmlns="http://www.w3.org/2000/svg" viewBox="0 0 240.22 154.59"><defs><style>.cls-1{fill:#fff;}.cls-2{fill:none;stroke:#1d1d1b;stroke-miterlimit:10;stroke-width:9px;}.cls-3{fill:#e95d6b;}</style></defs><g id="Layer_2" data-name="Layer 2"><g id="Layer_1-2" data-name="Layer 1"><path class="cls-1" d="M83,4.5H88.6a70,70,0,0,1,70,70v5.59a70,70,0,0,1-70,70H13a0,0,0,0,1,0,0V74.5a70,70,0,0,1,70-70Z"/><path class="cls-2" d="M74.5,4.5h5.59a70,70,0,0,1,70,70v5.59a70,70,0,0,1-70,70H4.5a0,0,0,0,1,0,0V74.5a70,70,0,0,1,70-70Z"/><rect class="cls-3" x="94.63" y="4.5" width="145.59" height="145.59" rx="70"/><rect class="cls-2" x="86.12" y="4.5" width="145.59" height="145.59" rx="70"/></g></g></svg>