<svg width="282" height="151" viewBox="0 0 282 151" fill="none" xmlns="http://www.w3.org/2000/svg">
<path d="M137.76 21.4C134.4 21.56 128.64 21.72 122.72 22.04C122.56 13.72 122.56 6.2 122.4 0.759991C117.92 0.279997 107.52 0.759991 103.84 1.72C103.36 14.2 103.36 52.92 103.84 66.68C108.48 66.84 118.4 66.36 122.4 65.72C122.56 59.32 122.72 49.72 122.72 39.48C129.12 39.32 135.04 38.84 137.76 38.36C138.24 33.4 138.24 26.2 137.76 21.4ZM80 5.71999C67.2 5.71999 11.36 8.59999 0.64 9.88C1.19209e-07 24.44 1.19209e-07 50.36 0.64 66.2C13.76 66.2 68.48 63.16 80 62.04C80.8 48.28 80.8 21.72 80 5.71999ZM62.24 47.16C52 48.28 28.96 49.24 18.56 49.56C18.24 43.64 18.24 31 18.56 24.6C30.88 23.8 52.16 22.52 62.24 22.36C62.56 28.6 62.56 41.4 62.24 47.16ZM24.96 120.76L122.4 115.64C123.2 106.04 123.2 82.04 122.4 73.24C102.08 73.72 44 76.76 6.56 79.32C5.92 82.68 5.92 90.36 6.56 94.52L103.68 89.4V102.2L6.24 107.32C5.28 121.08 5.6 141.4 6.24 149.72C26.24 149.56 112.32 144.92 125.12 143.48C125.44 139.48 125.6 132.44 125.12 128.28L24.96 133.56V120.76ZM252.148 19.48C252.308 25.4 252.308 44.12 252.148 51.32C256.468 51.64 266.868 51.16 270.228 50.52C271.028 40.28 271.188 13.24 270.228 2.52C262.228 2.52 220.628 4.6 212.948 5.56C212.308 10.2 212.308 16.76 212.948 21.56C217.588 21.24 248.148 19.48 252.148 19.48ZM182.868 23.16C183.028 29.08 183.028 47.8 182.868 55C187.348 55.32 197.588 54.84 200.948 54.04C201.748 43.96 201.908 16.92 200.948 6.2C193.428 6.2 157.588 7.95999 150.068 8.75999C149.588 13.4 149.588 19.96 150.068 24.92C154.388 24.44 179.188 23.16 182.868 23.16ZM281.108 59.32C272.148 59.64 251.508 60.6 228.308 61.88C228.308 53.56 228.308 44.28 228.148 37.88C223.348 37.4 213.268 37.88 209.268 39C209.108 44.92 208.948 54.2 208.948 62.84C184.308 64.12 159.668 65.56 144.467 66.52C143.988 71.32 143.988 78.52 144.467 82.68C168.788 82.04 261.428 77.4 281.108 75.64C281.588 70.68 281.588 63.8 281.108 59.32ZM153.908 96.12C153.268 109.4 153.108 137.56 153.908 149.88C168.148 150.2 257.588 145.4 271.668 143.64C272.468 131.64 272.308 103.8 271.668 89.88C259.828 90.2 166.388 95 153.908 96.12ZM253.748 129.4C246.068 130.2 179.988 133.88 171.828 133.72V110.52C182.068 109.72 244.468 106.52 253.748 106.2V129.4Z" fill="white"/>
</svg>
